<svg width="136" height="24" viewBox="0 0 136 24" fill="none" xmlns="http://www.w3.org/2000/svg">
<path d="M24.0536 23V22.2C21.7496 21.912 21.2376 21.56 21.2376 19.864V4.536C21.2376 2.808 21.8776 2.328 24.0536 2.168V1.368H13.2056V2.168C15.4456 2.328 16.0536 2.744 16.0536 4.536V11.064H8.34163V4.536C8.34163 2.744 8.94963 2.328 11.1896 2.168V1.368H0.437625V2.168C2.58163 2.36 3.15763 2.776 3.15763 4.536V19.864C3.15763 21.56 2.67763 21.912 0.437625 22.2V23H11.1896V22.2C8.85363 21.944 8.34163 21.56 8.34163 19.864V12.568H16.0536V19.864C16.0536 21.496 15.5416 21.944 13.2056 22.2V23H24.0536ZM40.1599 7.832V0.855999H39.1999C38.9759 1.72 38.7519 1.944 38.1759 1.944C37.8879 1.944 37.5039 1.848 36.8319 1.624C35.3599 1.08 34.3359 0.887999 33.0879 0.887999C28.7359 0.887999 26.0799 3.256 26.0799 7.32C26.0799 10.552 27.9359 12.312 31.5519 14.04C32.9279 14.712 34.3679 15.352 35.4559 16.12C36.5439 16.888 37.2799 17.784 37.2799 18.936C37.2799 21.144 35.7119 22.552 33.2479 22.552C31.3919 22.552 29.8559 21.784 28.6399 20.248C27.7119 19.064 27.2639 17.944 26.7199 15.672H25.7919V23.608H26.7199C26.9119 22.776 27.1679 22.52 27.6799 22.52C27.9359 22.52 28.2879 22.616 28.9919 22.84C30.5599 23.384 31.7439 23.608 33.1519 23.608C37.8879 23.608 41.0879 20.824 41.0879 16.792C41.0879 14.36 39.6479 12.28 37.5999 11.16C35.9679 10.264 34.4319 9.528 32.8639 8.696C30.3039 7.352 29.5679 6.616 29.5679 5.048C29.5679 3.224 30.8799 1.88 33.0879 1.88C34.5279 1.88 35.8719 2.488 37.0239 3.672C38.1119 4.792 38.6239 5.752 39.2639 7.832H40.1599ZM54.2931 23V22.2C51.8611 22.04 51.2531 21.688 51.2531 19.608V4.568C51.2531 2.776 51.9251 2.264 54.2931 2.168V1.368H43.0931V2.168C45.3971 2.328 46.0691 2.776 46.0691 4.568V19.608C46.0691 21.592 45.4931 21.976 43.0931 22.2V23H54.2931ZM76.9386 23V22.2C75.6266 22.2 75.0506 21.496 73.4186 17.624L66.3146 0.919998H65.4186L58.3466 18.36C57.1306 21.368 56.6506 21.944 55.1786 22.2V23H61.6426V22.2C59.7546 22.072 59.0506 21.72 59.0506 20.888C59.0506 20.12 59.6586 18.776 60.0426 17.784L60.4586 16.696H67.6586C68.7466 19.224 69.1306 20.344 69.1306 21.048C69.1306 21.752 68.7146 22.008 67.6586 22.104L66.6346 22.2V23H76.9386ZM67.1786 15.448H60.9386L63.9466 7.672L67.1786 15.448ZM100.416 1.368H93.5684V2.168C95.9364 2.392 96.5124 3 96.5124 5.56V15.128L85.3444 1.368H78.5924V2.168C79.2324 2.168 79.9684 2.616 81.3124 4.472V19.512C81.3124 21.464 80.8324 21.912 78.4964 22.2V23H85.7284V22.2C83.2644 21.912 82.7204 21.272 82.7204 18.808V6.136L97.0244 23.576H97.9204V4.824C97.9204 2.808 98.3364 2.488 100.416 2.168V1.368ZM124.894 13.816H113.886V14.616C116.638 14.776 117.15 15.32 117.15 16.984V19.832C117.15 21.464 116.35 22.552 114.078 22.552C111.614 22.552 110.238 21.624 109.118 19.768C108.062 18.008 107.582 15.48 107.582 12.184C107.582 5.56 109.758 1.944 113.47 1.944C114.974 1.944 116.51 2.52 117.886 3.736C119.262 4.952 119.838 6.072 120.958 8.504H121.758V0.983999H120.894C120.414 2.136 120.094 2.456 119.486 2.456C119.166 2.456 118.75 2.328 118.014 2.008C116.158 1.24 114.718 0.887999 113.054 0.887999C106.654 0.887999 101.918 6.04 101.918 12.408C101.918 19.256 106.846 23.608 113.278 23.608C116.606 23.608 120.062 22.808 122.142 21.592V17.816C122.142 15.8 122.494 14.872 124.894 14.616V13.816ZM135.241 10.136H134.729C134.121 11.512 133.865 11.64 131.753 11.64H128.809L131.977 8.696C133.705 7.096 134.345 5.944 134.345 4.536C134.345 2.456 132.777 0.983999 130.537 0.983999C128.457 0.983999 127.017 2.2 125.929 4.888H126.697C127.369 3.64 128.041 3.16 129.129 3.16C130.473 3.16 131.529 4.248 131.529 5.592C131.529 7.448 130.441 8.984 125.641 13.752V14.2H134.281L135.241 10.136Z" fill="#5D718E"/>
</svg>
